<svg viewBox="0 0 413.43 367.77" xmlns="http://www.w3.org/2000/svg"><path d="m173.23 125.27h49.3v254.32h-49.3z" fill="#f88e00" transform="matrix(.70710678 .70710678 -.70710678 .70710678 236.46 -65.99)"/><path d="m205.02 214.21h69.71l31.67-31.67-34.86-34.85z" fill="#c96626"/><path d="m124.91 367.77-43.35-43.35 188.32-188.31 43.34 43.34zm-26.38-43.35 26.37 26.38 171.35-171.35-26.37-26.37z" fill="#426572"/><path d="m172.74 125.27h49.3v254.32h-49.3z" fill="#f88e00" transform="matrix(-.70710678 .70710678 -.70710678 -.70710678 515.46 291.35)"/><path d="m189.69 214.21h-69.71l-31.66-31.67 34.85-34.85z" fill="#c96626"/><path d="m270.37 367.77-188.32-188.32 43.34-43.34 188.32 188.31zm-171.37-188.32 171.37 171.35 26.37-26.37-171.34-171.35z" fill="#426572"/><rect fill="#fff" height="131.46" rx="12" width="401.43" x="6.35" y="58.43"/><circle cx="75.91" cy="31.04" fill="#f3aa9f" r="25.04"/><circle cx="338.84" cy="31.04" fill="#f3aa9f" r="25.04"/><path d="m100.17 31a25.07 25.07 0 0 1 -32.08 24 25.05 25.05 0 0 0 0-48 25.07 25.07 0 0 1 32.08 24z" fill="#e1978f"/><path d="m363.1 31a25.07 25.07 0 0 1 -32.08 24 25.05 25.05 0 0 0 -.02-48 25.07 25.07 0 0 1 32.1 24z" fill="#e1978f"/><path d="m407.53 67.82v8.61h-374a9.42 9.42 0 0 0 -9.39 9.39v104.07h-8.65a9.42 9.42 0 0 1 -9.39-9.39v-112.68a9.42 9.42 0 0 1 9.39-9.39h382.65a9.42 9.42 0 0 1 9.39 9.39z" fill="#e1d2d5"/><path d="m122.99 63.12-36 131.47h67.82l36-131.47z" fill="#f3aa9f"/><path d="m258.36 63.12-35.99 131.47h67.82l35.99-131.47z" fill="#f3aa9f"/><path d="m395.43 195.89h-377.43a18 18 0 0 1 -18-18v-107.46a18 18 0 0 1 18-18h377.43a18 18 0 0 1 18 18v107.46a18 18 0 0 1 -18 18zm-377.43-131.46a6 6 0 0 0 -6 6v107.46a6 6 0 0 0 6 6h377.43a6 6 0 0 0 6-6v-107.46a6 6 0 0 0 -6-6z" fill="#426572"/><path d="m75.3 62.08a31 31 0 1 1 31-31 31.08 31.08 0 0 1 -31 31zm0-50.08a19 19 0 1 0 19 19 19.06 19.06 0 0 0 -19-19z" fill="#426572"/><path d="m338.23 62.08a31 31 0 1 1 31-31 31.08 31.08 0 0 1 -31 31zm0-50.08a19 19 0 1 0 19 19 19.06 19.06 0 0 0 -19-19z" fill="#426572"/><path d="m118.57 76.43 3.64-13.31h66.53l-3.65 13.31z" fill="#e1978f"/><path d="m255.51 76.43 3.64-13.31h66.79l-3.64 13.31z" fill="#e1978f"/><g fill="#426572"><path d="m36.84 118.16h136.3v12h-136.3z" transform="matrix(.26420973 -.96446525 .96446525 .26420973 -42.49 192.62)"/><path d="m104.66 118.16h136.3v12h-136.3z" transform="matrix(.26420973 -.96446525 .96446525 .26420973 7.41 258.03)"/><path d="m172.48 118.16h136.3v12h-136.3z" transform="matrix(.26420973 -.96446525 .96446525 .26420973 57.31 323.44)"/><path d="m240.29 118.16h136.3v12h-136.3z" transform="matrix(.26420973 -.96446525 .96446525 .26420973 107.22 388.85)"/></g><ellipse cx="265.99" cy="314" fill="#fff" rx="3.83" ry="20" transform="matrix(.70053571 -.71361735 .71361735 .70053571 -144.42 283.84)"/><ellipse cx="238.16" cy="286.47" fill="#fff" rx="3.83" ry="10" transform="matrix(.70053571 -.71361735 .71361735 .70053571 -133.11 255.74)"/></svg>